<svg width="25" height="24" viewBox="0 0 25 24" fill="none" xmlns="http://www.w3.org/2000/svg">
<g id="ant-design:mail-outlined">
<path id="Vector" d="M22.25 3.75H2.75C2.33516 3.75 2 4.08516 2 4.5V19.5C2 19.9148 2.33516 20.25 2.75 20.25H22.25C22.6648 20.25 23 19.9148 23 19.5V4.5C23 4.08516 22.6648 3.75 22.25 3.75ZM21.3125 6.34687V18.5625H3.6875V6.34687L3.04063 5.84297L3.96172 4.65938L4.96484 5.43984H20.0375L21.0406 4.65938L21.9617 5.84297L21.3125 6.34687ZM20.0375 5.4375L12.5 11.2969L4.9625 5.4375L3.95938 4.65703L3.03828 5.84062L3.68516 6.34453L11.6914 12.5695C11.9217 12.7484 12.2049 12.8455 12.4965 12.8455C12.7881 12.8455 13.0713 12.7484 13.3016 12.5695L21.3125 6.34687L21.9594 5.84297L21.0383 4.65938L20.0375 5.4375Z" fill="#4A4A4A"/>
</g>
</svg>
