<svg width="24" height="24" viewBox="0 0 24 24" fill="none" xmlns="http://www.w3.org/2000/svg">
<path d="M19.913 5.32189C20.1017 5.32347 20.2863 5.37661 20.4469 5.47557C20.6074 5.57452 20.7379 5.71552 20.8241 5.8833C20.9103 6.05108 20.949 6.23925 20.9359 6.42743C20.9229 6.6156 20.8586 6.79663 20.75 6.95089L19.708 8.43189C19.644 13.5179 17.943 16.9709 14.652 18.6959C13.084 19.4759 11.3511 19.8666 9.60004 19.8349C7.43489 19.8848 5.29532 19.3589 3.40004 18.3109C3.27254 18.2252 3.174 18.1029 3.11741 17.9601C3.06082 17.8173 3.04884 17.6607 3.08304 17.5109C3.11532 17.359 3.19275 17.2205 3.30518 17.1134C3.41761 17.0063 3.55978 16.9357 3.71304 16.9109C4.98629 16.7331 6.24009 16.4364 7.45804 16.0249C2.00004 13.4999 3.19004 7.82389 3.71004 6.08089C3.76074 5.90785 3.85606 5.75118 3.98643 5.62662C4.11681 5.50205 4.27766 5.41397 4.45283 5.37122C4.62801 5.32846 4.81134 5.33254 4.98445 5.38303C5.15755 5.43352 5.31433 5.52866 5.43904 5.65889C7.03663 7.30519 9.15495 8.34756 11.434 8.60889C11.3937 7.99645 11.4885 7.38262 11.7116 6.81083C11.9346 6.23903 12.2806 5.72323 12.725 5.29989C13.4951 4.56906 14.5174 4.16329 15.5791 4.16702C16.6407 4.17074 17.6601 4.58367 18.425 5.31989L19.913 5.32189ZM4.52104 17.7939C6.38304 18.6659 10.747 19.6129 14.188 17.8099C17.143 16.2609 18.664 13.0779 18.709 8.34889C18.711 8.19251 18.7605 8.04043 18.851 7.91289L19.932 6.37489L19.891 6.32189C19.373 6.31489 18.862 6.30789 18.341 6.32189C18.138 6.31678 17.9437 6.23827 17.794 6.10089C17.2184 5.51738 16.4368 5.18296 15.6173 5.1695C14.7977 5.15604 14.0056 5.4646 13.411 6.02889C13.0289 6.39184 12.7433 6.84435 12.58 7.34546C12.4168 7.84658 12.381 8.38049 12.476 8.89889C12.4932 8.99547 12.4882 9.09466 12.4615 9.18905C12.4349 9.28343 12.3872 9.37056 12.322 9.44389C12.2595 9.51778 12.1797 9.57513 12.0897 9.61088C11.9997 9.64664 11.9023 9.65969 11.806 9.64889C9.11916 9.46177 6.59622 8.28827 4.72204 6.35389C4.05204 8.43189 3.20204 13.4479 8.59104 15.4189C8.70459 15.4594 8.80414 15.5316 8.87787 15.6269C8.95161 15.7223 8.99644 15.8368 9.00704 15.9569C9.01863 16.075 8.99662 16.194 8.94354 16.3001C8.89047 16.4063 8.80849 16.4953 8.70704 16.5569C7.39002 17.1987 5.97535 17.6167 4.52104 17.7939Z" fill="#333333"/>
</svg>
