<svg width="179" height="200" viewBox="0 0 179 200" fill="none" xmlns="http://www.w3.org/2000/svg">
<g opacity="0.3">
<mask id="mask0_127_904" style="mask-type:alpha" maskUnits="userSpaceOnUse" x="0" y="0" width="19" height="19">
<path d="M9.05953 18.5977C14.063 18.5977 18.1191 14.5538 18.1191 9.56555C18.1191 4.57731 14.063 0.533569 9.05953 0.533569C4.05605 0.533569 -6.10352e-05 4.57731 -6.10352e-05 9.56555C-6.10352e-05 14.5538 4.05605 18.5977 9.05953 18.5977Z" fill="url(#paint0_linear_127_904)"/>
</mask>
<g mask="url(#mask0_127_904)">
<path d="M9.05953 18.5977C14.063 18.5977 18.1191 14.5538 18.1191 9.56555C18.1191 4.57731 14.063 0.533569 9.05953 0.533569C4.05605 0.533569 -6.10352e-05 4.57731 -6.10352e-05 9.56555C-6.10352e-05 14.5538 4.05605 18.5977 9.05953 18.5977Z" fill="url(#paint1_linear_127_904)"/>
</g>
<mask id="mask1_127_904" style="mask-type:alpha" maskUnits="userSpaceOnUse" x="52" y="0" width="19" height="19">
<path d="M61.5296 18.5977C66.5331 18.5977 70.5892 14.5538 70.5892 9.56555C70.5892 4.57731 66.5331 0.533569 61.5296 0.533569C56.5261 0.533569 52.47 4.57731 52.47 9.56555C52.47 14.5538 56.5261 18.5977 61.5296 18.5977Z" fill="url(#paint2_linear_127_904)"/>
</mask>
<g mask="url(#mask1_127_904)">
<path d="M61.5296 18.5977C66.5331 18.5977 70.5892 14.5538 70.5892 9.56555C70.5892 4.57731 66.5331 0.533569 61.5296 0.533569C56.5261 0.533569 52.47 4.57731 52.47 9.56555C52.47 14.5538 56.5261 18.5977 61.5296 18.5977Z" fill="url(#paint3_linear_127_904)"/>
</g>
<mask id="mask2_127_904" style="mask-type:alpha" maskUnits="userSpaceOnUse" x="104" y="0" width="20" height="19">
<path d="M114 18.5975C119.004 18.5975 123.06 14.5537 123.06 9.56543C123.06 4.57719 119.004 0.533447 114 0.533447C108.997 0.533447 104.94 4.57719 104.94 9.56543C104.94 14.5537 108.997 18.5975 114 18.5975Z" fill="url(#paint4_linear_127_904)"/>
</mask>
<g mask="url(#mask2_127_904)">
<path d="M114 18.5975C119.004 18.5975 123.06 14.5537 123.06 9.56543C123.06 4.57719 119.004 0.533447 114 0.533447C108.997 0.533447 104.94 4.57719 104.94 9.56543C104.94 14.5537 108.997 18.5975 114 18.5975Z" fill="url(#paint5_linear_127_904)"/>
</g>
<mask id="mask3_127_904" style="mask-type:alpha" maskUnits="userSpaceOnUse" x="157" y="0" width="19" height="19">
<path d="M166.47 18.5977C171.474 18.5977 175.53 14.5538 175.53 9.56555C175.53 4.57731 171.474 0.533569 166.47 0.533569C161.467 0.533569 157.41 4.57731 157.41 9.56555C157.41 14.5538 161.467 18.5977 166.47 18.5977Z" fill="url(#paint6_linear_127_904)"/>
</mask>
<g mask="url(#mask3_127_904)">
<path d="M166.47 18.5977C171.474 18.5977 175.53 14.5538 175.53 9.56555C175.53 4.57731 171.474 0.533569 166.47 0.533569C161.467 0.533569 157.41 4.57731 157.41 9.56555C157.41 14.5538 161.467 18.5977 166.47 18.5977Z" fill="url(#paint7_linear_127_904)"/>
</g>
<mask id="mask4_127_904" style="mask-type:alpha" maskUnits="userSpaceOnUse" x="0" y="45" width="19" height="19">
<path d="M9.05953 63.946C14.063 63.946 18.1191 59.9023 18.1191 54.914C18.1191 49.9258 14.063 45.8821 9.05953 45.8821C4.05605 45.8821 -6.10352e-05 49.9258 -6.10352e-05 54.914C-6.10352e-05 59.9023 4.05605 63.946 9.05953 63.946Z" fill="url(#paint8_linear_127_904)"/>
</mask>
<g mask="url(#mask4_127_904)">
<path d="M9.05953 63.946C14.063 63.946 18.1191 59.9023 18.1191 54.914C18.1191 49.9258 14.063 45.8821 9.05953 45.8821C4.05605 45.8821 -6.10352e-05 49.9258 -6.10352e-05 54.914C-6.10352e-05 59.9023 4.05605 63.946 9.05953 63.946Z" fill="url(#paint9_linear_127_904)"/>
</g>
<mask id="mask5_127_904" style="mask-type:alpha" maskUnits="userSpaceOnUse" x="52" y="45" width="19" height="19">
<path d="M61.5299 63.9457C66.5334 63.9457 70.5896 59.902 70.5896 54.9138C70.5896 49.9256 66.5334 45.8818 61.5299 45.8818C56.5265 45.8818 52.4703 49.9256 52.4703 54.9138C52.4703 59.902 56.5265 63.9457 61.5299 63.9457Z" fill="url(#paint10_linear_127_904)"/>
</mask>
<g mask="url(#mask5_127_904)">
<path d="M61.5299 63.9457C66.5334 63.9457 70.5896 59.902 70.5896 54.9138C70.5896 49.9256 66.5334 45.8818 61.5299 45.8818C56.5265 45.8818 52.4703 49.9256 52.4703 54.9138C52.4703 59.902 56.5265 63.9457 61.5299 63.9457Z" fill="url(#paint11_linear_127_904)"/>
</g>
<mask id="mask6_127_904" style="mask-type:alpha" maskUnits="userSpaceOnUse" x="104" y="45" width="20" height="19">
<path d="M114 63.9456C119.003 63.9456 123.059 59.9019 123.059 54.9137C123.059 49.9254 119.003 45.8817 114 45.8817C108.996 45.8817 104.94 49.9254 104.94 54.9137C104.94 59.9019 108.996 63.9456 114 63.9456Z" fill="url(#paint12_linear_127_904)"/>
</mask>
<g mask="url(#mask6_127_904)">
<path d="M114 63.9456C119.003 63.9456 123.059 59.9019 123.059 54.9137C123.059 49.9254 119.003 45.8817 114 45.8817C108.996 45.8817 104.94 49.9254 104.94 54.9137C104.94 59.9019 108.996 63.9456 114 63.9456Z" fill="url(#paint13_linear_127_904)"/>
</g>
<mask id="mask7_127_904" style="mask-type:alpha" maskUnits="userSpaceOnUse" x="157" y="45" width="19" height="19">
<path d="M166.47 63.9456C171.474 63.9456 175.53 59.9019 175.53 54.9137C175.53 49.9254 171.474 45.8817 166.47 45.8817C161.467 45.8817 157.411 49.9254 157.411 54.9137C157.411 59.9019 161.467 63.9456 166.47 63.9456Z" fill="url(#paint14_linear_127_904)"/>
</mask>
<g mask="url(#mask7_127_904)">
<path d="M166.47 63.9456C171.474 63.9456 175.53 59.9019 175.53 54.9137C175.53 49.9254 171.474 45.8817 166.47 45.8817C161.467 45.8817 157.411 49.9254 157.411 54.9137C157.411 59.9019 161.467 63.9456 166.47 63.9456Z" fill="url(#paint15_linear_127_904)"/>
</g>
<mask id="mask8_127_904" style="mask-type:alpha" maskUnits="userSpaceOnUse" x="0" y="91" width="19" height="19">
<path d="M9.05971 109.2C14.0632 109.2 18.1193 105.156 18.1193 100.168C18.1193 95.1795 14.0632 91.1357 9.05971 91.1357C4.05623 91.1357 0.00012207 95.1795 0.00012207 100.168C0.00012207 105.156 4.05623 109.2 9.05971 109.2Z" fill="url(#paint16_linear_127_904)"/>
</mask>
<g mask="url(#mask8_127_904)">
<path d="M9.05971 109.2C14.0632 109.2 18.1193 105.156 18.1193 100.168C18.1193 95.1795 14.0632 91.1357 9.05971 91.1357C4.05623 91.1357 0.00012207 95.1795 0.00012207 100.168C0.00012207 105.156 4.05623 109.2 9.05971 109.2Z" fill="url(#paint17_linear_127_904)"/>
</g>
<mask id="mask9_127_904" style="mask-type:alpha" maskUnits="userSpaceOnUse" x="52" y="91" width="19" height="19">
<path d="M61.5298 109.2C66.5332 109.2 70.5894 105.156 70.5894 100.168C70.5894 95.1798 66.5332 91.136 61.5298 91.136C56.5263 91.136 52.4702 95.1798 52.4702 100.168C52.4702 105.156 56.5263 109.2 61.5298 109.2Z" fill="url(#paint18_linear_127_904)"/>
</mask>
<g mask="url(#mask9_127_904)">
<path d="M61.5298 109.2C66.5332 109.2 70.5894 105.156 70.5894 100.168C70.5894 95.1798 66.5332 91.136 61.5298 91.136C56.5263 91.136 52.4702 95.1798 52.4702 100.168C52.4702 105.156 56.5263 109.2 61.5298 109.2Z" fill="url(#paint19_linear_127_904)"/>
</g>
<mask id="mask10_127_904" style="mask-type:alpha" maskUnits="userSpaceOnUse" x="104" y="91" width="20" height="19">
<path d="M114 109.2C119.004 109.2 123.06 105.156 123.06 100.168C123.06 95.1795 119.004 91.1357 114 91.1357C108.997 91.1357 104.94 95.1795 104.94 100.168C104.94 105.156 108.997 109.2 114 109.2Z" fill="url(#paint20_linear_127_904)"/>
</mask>
<g mask="url(#mask10_127_904)">
<path d="M114 109.2C119.004 109.2 123.06 105.156 123.06 100.168C123.06 95.1795 119.004 91.1357 114 91.1357C108.997 91.1357 104.94 95.1795 104.94 100.168C104.94 105.156 108.997 109.2 114 109.2Z" fill="url(#paint21_linear_127_904)"/>
</g>
<mask id="mask11_127_904" style="mask-type:alpha" maskUnits="userSpaceOnUse" x="157" y="91" width="19" height="19">
<path d="M166.47 109.2C171.474 109.2 175.53 105.156 175.53 100.168C175.53 95.1798 171.474 91.136 166.47 91.136C161.467 91.136 157.411 95.1798 157.411 100.168C157.411 105.156 161.467 109.2 166.47 109.2Z" fill="url(#paint22_linear_127_904)"/>
</mask>
<g mask="url(#mask11_127_904)">
<path d="M166.47 109.2C171.474 109.2 175.53 105.156 175.53 100.168C175.53 95.1798 171.474 91.136 166.47 91.136C161.467 91.136 157.411 95.1798 157.411 100.168C157.411 105.156 161.467 109.2 166.47 109.2Z" fill="url(#paint23_linear_127_904)"/>
</g>
<mask id="mask12_127_904" style="mask-type:alpha" maskUnits="userSpaceOnUse" x="0" y="136" width="19" height="19">
<path d="M9.05953 154.548C14.063 154.548 18.1191 150.504 18.1191 145.516C18.1191 140.528 14.063 136.484 9.05953 136.484C4.05605 136.484 -6.10352e-05 140.528 -6.10352e-05 145.516C-6.10352e-05 150.504 4.05605 154.548 9.05953 154.548Z" fill="url(#paint24_linear_127_904)"/>
</mask>
<g mask="url(#mask12_127_904)">
<path d="M9.05953 154.548C14.063 154.548 18.1191 150.504 18.1191 145.516C18.1191 140.528 14.063 136.484 9.05953 136.484C4.05605 136.484 -6.10352e-05 140.528 -6.10352e-05 145.516C-6.10352e-05 150.504 4.05605 154.548 9.05953 154.548Z" fill="url(#paint25_linear_127_904)"/>
</g>
<mask id="mask13_127_904" style="mask-type:alpha" maskUnits="userSpaceOnUse" x="52" y="136" width="19" height="19">
<path d="M61.5299 154.548C66.5334 154.548 70.5896 150.504 70.5896 145.516C70.5896 140.528 66.5334 136.484 61.5299 136.484C56.5265 136.484 52.4703 140.528 52.4703 145.516C52.4703 150.504 56.5265 154.548 61.5299 154.548Z" fill="url(#paint26_linear_127_904)"/>
</mask>
<g mask="url(#mask13_127_904)">
<path d="M61.5299 154.548C66.5334 154.548 70.5896 150.504 70.5896 145.516C70.5896 140.528 66.5334 136.484 61.5299 136.484C56.5265 136.484 52.4703 140.528 52.4703 145.516C52.4703 150.504 56.5265 154.548 61.5299 154.548Z" fill="url(#paint27_linear_127_904)"/>
</g>
<mask id="mask14_127_904" style="mask-type:alpha" maskUnits="userSpaceOnUse" x="104" y="136" width="20" height="19">
<path d="M114 154.548C119.003 154.548 123.059 150.504 123.059 145.516C123.059 140.528 119.003 136.484 114 136.484C108.996 136.484 104.94 140.528 104.94 145.516C104.94 150.504 108.996 154.548 114 154.548Z" fill="url(#paint28_linear_127_904)"/>
</mask>
<g mask="url(#mask14_127_904)">
<path d="M114 154.548C119.003 154.548 123.059 150.504 123.059 145.516C123.059 140.528 119.003 136.484 114 136.484C108.996 136.484 104.94 140.528 104.94 145.516C104.94 150.504 108.996 154.548 114 154.548Z" fill="url(#paint29_linear_127_904)"/>
</g>
<mask id="mask15_127_904" style="mask-type:alpha" maskUnits="userSpaceOnUse" x="157" y="136" width="19" height="19">
<path d="M166.47 154.548C171.474 154.548 175.53 150.504 175.53 145.516C175.53 140.528 171.474 136.484 166.47 136.484C161.467 136.484 157.411 140.528 157.411 145.516C157.411 150.504 161.467 154.548 166.47 154.548Z" fill="url(#paint30_linear_127_904)"/>
</mask>
<g mask="url(#mask15_127_904)">
<path d="M166.47 154.548C171.474 154.548 175.53 150.504 175.53 145.516C175.53 140.528 171.474 136.484 166.47 136.484C161.467 136.484 157.411 140.528 157.411 145.516C157.411 150.504 161.467 154.548 166.47 154.548Z" fill="url(#paint31_linear_127_904)"/>
</g>
<mask id="mask16_127_904" style="mask-type:alpha" maskUnits="userSpaceOnUse" x="-1" y="181" width="20" height="19">
<path d="M9.05935 199.802C14.0628 199.802 18.119 195.759 18.119 190.77C18.119 185.782 14.0628 181.738 9.05935 181.738C4.05587 181.738 -0.000244141 185.782 -0.000244141 190.77C-0.000244141 195.759 4.05587 199.802 9.05935 199.802Z" fill="url(#paint32_linear_127_904)"/>
</mask>
<g mask="url(#mask16_127_904)">
<path d="M9.05935 199.802C14.0628 199.802 18.119 195.759 18.119 190.77C18.119 185.782 14.0628 181.738 9.05935 181.738C4.05587 181.738 -0.000244141 185.782 -0.000244141 190.77C-0.000244141 195.759 4.05587 199.802 9.05935 199.802Z" fill="url(#paint33_linear_127_904)"/>
</g>
<mask id="mask17_127_904" style="mask-type:alpha" maskUnits="userSpaceOnUse" x="52" y="181" width="19" height="19">
<path d="M61.5299 199.802C66.5334 199.802 70.5896 195.759 70.5896 190.77C70.5896 185.782 66.5334 181.738 61.5299 181.738C56.5265 181.738 52.4703 185.782 52.4703 190.77C52.4703 195.759 56.5265 199.802 61.5299 199.802Z" fill="url(#paint34_linear_127_904)"/>
</mask>
<g mask="url(#mask17_127_904)">
<path d="M61.5299 199.802C66.5334 199.802 70.5896 195.759 70.5896 190.77C70.5896 185.782 66.5334 181.738 61.5299 181.738C56.5265 181.738 52.4703 185.782 52.4703 190.77C52.4703 195.759 56.5265 199.802 61.5299 199.802Z" fill="url(#paint35_linear_127_904)"/>
</g>
<mask id="mask18_127_904" style="mask-type:alpha" maskUnits="userSpaceOnUse" x="104" y="181" width="20" height="19">
<path d="M114 199.802C119.003 199.802 123.059 195.759 123.059 190.77C123.059 185.782 119.003 181.738 114 181.738C108.996 181.738 104.94 185.782 104.94 190.77C104.94 195.759 108.996 199.802 114 199.802Z" fill="url(#paint36_linear_127_904)"/>
</mask>
<g mask="url(#mask18_127_904)">
<path d="M114 199.802C119.003 199.802 123.059 195.759 123.059 190.77C123.059 185.782 119.003 181.738 114 181.738C108.996 181.738 104.94 185.782 104.94 190.77C104.94 195.759 108.996 199.802 114 199.802Z" fill="url(#paint37_linear_127_904)"/>
</g>
<mask id="mask19_127_904" style="mask-type:alpha" maskUnits="userSpaceOnUse" x="157" y="181" width="19" height="19">
<path d="M166.47 199.802C171.474 199.802 175.53 195.759 175.53 190.77C175.53 185.782 171.474 181.738 166.47 181.738C161.467 181.738 157.411 185.782 157.411 190.77C157.411 195.759 161.467 199.802 166.47 199.802Z" fill="url(#paint38_linear_127_904)"/>
</mask>
<g mask="url(#mask19_127_904)">
<path d="M166.47 199.802C171.474 199.802 175.53 195.759 175.53 190.77C175.53 185.782 171.474 181.738 166.47 181.738C161.467 181.738 157.411 185.782 157.411 190.77C157.411 195.759 161.467 199.802 166.47 199.802Z" fill="url(#paint39_linear_127_904)"/>
</g>
</g>
<defs>
<linearGradient id="paint0_linear_127_904" x1="95.2955" y1="227.759" x2="-28.4274" y2="-87.266" gradientUnits="userSpaceOnUse">
<stop/>
<stop offset="1" stop-color="white"/>
</linearGradient>
<linearGradient id="paint1_linear_127_904" x1="95.2955" y1="227.759" x2="-28.4274" y2="-87.266" gradientUnits="userSpaceOnUse">
<stop stop-color="#97C3F9"/>
<stop offset="1" stop-color="#93C1F9"/>
</linearGradient>
<linearGradient id="paint2_linear_127_904" x1="140.702" y1="209.926" x2="16.979" y2="-105.098" gradientUnits="userSpaceOnUse">
<stop/>
<stop offset="1" stop-color="white"/>
</linearGradient>
<linearGradient id="paint3_linear_127_904" x1="140.702" y1="209.926" x2="16.979" y2="-105.098" gradientUnits="userSpaceOnUse">
<stop stop-color="#97C3F9"/>
<stop offset="1" stop-color="#93C1F9"/>
</linearGradient>
<linearGradient id="paint4_linear_127_904" x1="186.108" y1="192.094" x2="62.3856" y2="-122.931" gradientUnits="userSpaceOnUse">
<stop/>
<stop offset="1" stop-color="white"/>
</linearGradient>
<linearGradient id="paint5_linear_127_904" x1="186.108" y1="192.094" x2="62.3856" y2="-122.931" gradientUnits="userSpaceOnUse">
<stop stop-color="#97C3F9"/>
<stop offset="1" stop-color="#93C1F9"/>
</linearGradient>
<linearGradient id="paint6_linear_127_904" x1="231.514" y1="174.26" x2="107.791" y2="-140.764" gradientUnits="userSpaceOnUse">
<stop/>
<stop offset="1" stop-color="white"/>
</linearGradient>
<linearGradient id="paint7_linear_127_904" x1="231.514" y1="174.26" x2="107.791" y2="-140.764" gradientUnits="userSpaceOnUse">
<stop stop-color="#97C3F9"/>
<stop offset="1" stop-color="#93C1F9"/>
</linearGradient>
<linearGradient id="paint8_linear_127_904" x1="79.8008" y1="233.843" x2="-43.92" y2="-81.1788" gradientUnits="userSpaceOnUse">
<stop/>
<stop offset="1" stop-color="white"/>
</linearGradient>
<linearGradient id="paint9_linear_127_904" x1="79.8008" y1="233.843" x2="-43.92" y2="-81.1788" gradientUnits="userSpaceOnUse">
<stop stop-color="#97C3F9"/>
<stop offset="1" stop-color="#93C1F9"/>
</linearGradient>
<linearGradient id="paint10_linear_127_904" x1="125.207" y1="216.01" x2="1.48636" y2="-99.0125" gradientUnits="userSpaceOnUse">
<stop/>
<stop offset="1" stop-color="white"/>
</linearGradient>
<linearGradient id="paint11_linear_127_904" x1="125.207" y1="216.01" x2="1.48636" y2="-99.0125" gradientUnits="userSpaceOnUse">
<stop stop-color="#97C3F9"/>
<stop offset="1" stop-color="#93C1F9"/>
</linearGradient>
<linearGradient id="paint12_linear_127_904" x1="170.613" y1="198.177" x2="46.8922" y2="-116.845" gradientUnits="userSpaceOnUse">
<stop/>
<stop offset="1" stop-color="white"/>
</linearGradient>
<linearGradient id="paint13_linear_127_904" x1="170.613" y1="198.177" x2="46.8922" y2="-116.845" gradientUnits="userSpaceOnUse">
<stop stop-color="#97C3F9"/>
<stop offset="1" stop-color="#93C1F9"/>
</linearGradient>
<linearGradient id="paint14_linear_127_904" x1="216.019" y1="180.345" x2="92.2985" y2="-134.678" gradientUnits="userSpaceOnUse">
<stop/>
<stop offset="1" stop-color="white"/>
</linearGradient>
<linearGradient id="paint15_linear_127_904" x1="216.019" y1="180.345" x2="92.2985" y2="-134.678" gradientUnits="userSpaceOnUse">
<stop stop-color="#97C3F9"/>
<stop offset="1" stop-color="#93C1F9"/>
</linearGradient>
<linearGradient id="paint16_linear_127_904" x1="64.3056" y1="239.93" x2="-59.4173" y2="-75.0949" gradientUnits="userSpaceOnUse">
<stop/>
<stop offset="1" stop-color="white"/>
</linearGradient>
<linearGradient id="paint17_linear_127_904" x1="64.3056" y1="239.93" x2="-59.4173" y2="-75.0949" gradientUnits="userSpaceOnUse">
<stop stop-color="#97C3F9"/>
<stop offset="1" stop-color="#93C1F9"/>
</linearGradient>
<linearGradient id="paint18_linear_127_904" x1="109.712" y1="222.097" x2="-14.0111" y2="-92.9276" gradientUnits="userSpaceOnUse">
<stop/>
<stop offset="1" stop-color="white"/>
</linearGradient>
<linearGradient id="paint19_linear_127_904" x1="109.712" y1="222.097" x2="-14.0111" y2="-92.9276" gradientUnits="userSpaceOnUse">
<stop stop-color="#97C3F9"/>
<stop offset="1" stop-color="#93C1F9"/>
</linearGradient>
<linearGradient id="paint20_linear_127_904" x1="155.118" y1="204.264" x2="31.3952" y2="-110.761" gradientUnits="userSpaceOnUse">
<stop/>
<stop offset="1" stop-color="white"/>
</linearGradient>
<linearGradient id="paint21_linear_127_904" x1="155.118" y1="204.264" x2="31.3952" y2="-110.761" gradientUnits="userSpaceOnUse">
<stop stop-color="#97C3F9"/>
<stop offset="1" stop-color="#93C1F9"/>
</linearGradient>
<linearGradient id="paint22_linear_127_904" x1="200.524" y1="186.431" x2="76.8011" y2="-128.593" gradientUnits="userSpaceOnUse">
<stop/>
<stop offset="1" stop-color="white"/>
</linearGradient>
<linearGradient id="paint23_linear_127_904" x1="200.524" y1="186.431" x2="76.8011" y2="-128.593" gradientUnits="userSpaceOnUse">
<stop stop-color="#97C3F9"/>
<stop offset="1" stop-color="#93C1F9"/>
</linearGradient>
<linearGradient id="paint24_linear_127_904" x1="48.8103" y1="246.015" x2="-74.9126" y2="-69.0093" gradientUnits="userSpaceOnUse">
<stop/>
<stop offset="1" stop-color="white"/>
</linearGradient>
<linearGradient id="paint25_linear_127_904" x1="48.8103" y1="246.015" x2="-74.9126" y2="-69.0093" gradientUnits="userSpaceOnUse">
<stop stop-color="#97C3F9"/>
<stop offset="1" stop-color="#93C1F9"/>
</linearGradient>
<linearGradient id="paint26_linear_127_904" x1="94.2168" y1="228.183" x2="-29.506" y2="-86.8421" gradientUnits="userSpaceOnUse">
<stop/>
<stop offset="1" stop-color="white"/>
</linearGradient>
<linearGradient id="paint27_linear_127_904" x1="94.2168" y1="228.183" x2="-29.506" y2="-86.8421" gradientUnits="userSpaceOnUse">
<stop stop-color="#97C3F9"/>
<stop offset="1" stop-color="#93C1F9"/>
</linearGradient>
<linearGradient id="paint28_linear_127_904" x1="139.623" y1="210.349" x2="15.8999" y2="-104.675" gradientUnits="userSpaceOnUse">
<stop/>
<stop offset="1" stop-color="white"/>
</linearGradient>
<linearGradient id="paint29_linear_127_904" x1="139.623" y1="210.349" x2="15.8999" y2="-104.675" gradientUnits="userSpaceOnUse">
<stop stop-color="#97C3F9"/>
<stop offset="1" stop-color="#93C1F9"/>
</linearGradient>
<linearGradient id="paint30_linear_127_904" x1="185.029" y1="192.517" x2="61.3062" y2="-122.508" gradientUnits="userSpaceOnUse">
<stop/>
<stop offset="1" stop-color="white"/>
</linearGradient>
<linearGradient id="paint31_linear_127_904" x1="185.029" y1="192.517" x2="61.3062" y2="-122.508" gradientUnits="userSpaceOnUse">
<stop stop-color="#97C3F9"/>
<stop offset="1" stop-color="#93C1F9"/>
</linearGradient>
<linearGradient id="paint32_linear_127_904" x1="33.315" y1="252.101" x2="-90.4078" y2="-62.9238" gradientUnits="userSpaceOnUse">
<stop/>
<stop offset="1" stop-color="white"/>
</linearGradient>
<linearGradient id="paint33_linear_127_904" x1="33.315" y1="252.101" x2="-90.4078" y2="-62.9238" gradientUnits="userSpaceOnUse">
<stop stop-color="#97C3F9"/>
<stop offset="1" stop-color="#93C1F9"/>
</linearGradient>
<linearGradient id="paint34_linear_127_904" x1="78.7217" y1="234.268" x2="-45.0011" y2="-80.7567" gradientUnits="userSpaceOnUse">
<stop/>
<stop offset="1" stop-color="white"/>
</linearGradient>
<linearGradient id="paint35_linear_127_904" x1="78.7217" y1="234.268" x2="-45.0011" y2="-80.7567" gradientUnits="userSpaceOnUse">
<stop stop-color="#97C3F9"/>
<stop offset="1" stop-color="#93C1F9"/>
</linearGradient>
<linearGradient id="paint36_linear_127_904" x1="124.128" y1="216.435" x2="0.404869" y2="-98.5892" gradientUnits="userSpaceOnUse">
<stop/>
<stop offset="1" stop-color="white"/>
</linearGradient>
<linearGradient id="paint37_linear_127_904" x1="124.128" y1="216.435" x2="0.404869" y2="-98.5892" gradientUnits="userSpaceOnUse">
<stop stop-color="#97C3F9"/>
<stop offset="1" stop-color="#93C1F9"/>
</linearGradient>
<linearGradient id="paint38_linear_127_904" x1="169.534" y1="198.602" x2="45.8111" y2="-116.422" gradientUnits="userSpaceOnUse">
<stop/>
<stop offset="1" stop-color="white"/>
</linearGradient>
<linearGradient id="paint39_linear_127_904" x1="169.534" y1="198.602" x2="45.8111" y2="-116.422" gradientUnits="userSpaceOnUse">
<stop stop-color="#97C3F9"/>
<stop offset="1" stop-color="#93C1F9"/>
</linearGradient>
</defs>
</svg>
