<svg width="30" height="31" viewBox="0 0 30 31" fill="none" xmlns="http://www.w3.org/2000/svg">
<path d="M6.25 14.1661H21.075L16.5375 8.71612C16.3253 8.46084 16.2232 8.13174 16.2537 7.80121C16.2842 7.47068 16.4447 7.16579 16.7 6.95362C16.9553 6.74144 17.2844 6.63937 17.6149 6.66984C17.9454 6.70031 18.2503 6.86085 18.4625 7.11612L24.7125 14.6161C24.7545 14.6758 24.7922 14.7384 24.825 14.8036C24.825 14.8661 24.825 14.9036 24.9125 14.9661C24.9692 15.1094 24.9988 15.262 25 15.4161C24.9988 15.5702 24.9692 15.7228 24.9125 15.8661C24.9125 15.9286 24.9125 15.9661 24.825 16.0286C24.7922 16.0938 24.7545 16.1565 24.7125 16.2161L18.4625 23.7161C18.345 23.8572 18.1978 23.9707 18.0314 24.0485C17.8651 24.1262 17.6836 24.1664 17.5 24.1661C17.2079 24.1667 16.9249 24.065 16.7 23.8786C16.5734 23.7737 16.4688 23.6448 16.3921 23.4994C16.3154 23.3539 16.2682 23.1948 16.2531 23.0311C16.238 22.8674 16.2553 22.7023 16.3041 22.5453C16.3529 22.3883 16.4322 22.2424 16.5375 22.1161L21.075 16.6661H6.25C5.91848 16.6661 5.60054 16.5344 5.36612 16.3C5.13169 16.0656 5 15.7476 5 15.4161C5 15.0846 5.13169 14.7667 5.36612 14.5322C5.60054 14.2978 5.91848 14.1661 6.25 14.1661Z" fill="#486284"/>
</svg>
