<svg width="30" height="31" viewBox="0 0 30 31" fill="none" xmlns="http://www.w3.org/2000/svg">
<path d="M23.75 14.1661H8.925L13.4625 8.71612C13.6747 8.46084 13.7768 8.13174 13.7463 7.80121C13.7158 7.47068 13.5553 7.16579 13.3 6.95362C13.0447 6.74144 12.7156 6.63937 12.3851 6.66984C12.0546 6.70031 11.7497 6.86085 11.5375 7.11612L5.2875 14.6161C5.24545 14.6758 5.20785 14.7384 5.175 14.8036C5.175 14.8661 5.175 14.9036 5.0875 14.9661C5.03084 15.1094 5.00118 15.262 5 15.4161C5.00118 15.5702 5.03084 15.7228 5.0875 15.8661C5.0875 15.9286 5.0875 15.9661 5.175 16.0286C5.20785 16.0938 5.24545 16.1565 5.2875 16.2161L11.5375 23.7161C11.655 23.8572 11.8022 23.9707 11.9686 24.0485C12.1349 24.1262 12.3164 24.1664 12.5 24.1661C12.7921 24.1667 13.0751 24.065 13.3 23.8786C13.4266 23.7737 13.5312 23.6448 13.6079 23.4994C13.6846 23.3539 13.7318 23.1948 13.7469 23.0311C13.762 22.8674 13.7447 22.7023 13.6959 22.5453C13.6471 22.3883 13.5678 22.2424 13.4625 22.1161L8.925 16.6661H23.75C24.0815 16.6661 24.3995 16.5344 24.6339 16.3C24.8683 16.0656 25 15.7476 25 15.4161C25 15.0846 24.8683 14.7667 24.6339 14.5322C24.3995 14.2978 24.0815 14.1661 23.75 14.1661Z" fill="#222222"/>
</svg>
