<svg width="24" height="23" viewBox="0 0 23 22" fill="none" xmlns="http://www.w3.org/2000/svg">
<path fill-rule="evenodd" clip-rule="evenodd" d="M6.81137 0.0664883C7.98437 0.0124883 8.35837 0.000488281 11.3464 0.000488281C14.3344 0.000488281 14.7084 0.0134883 15.8804 0.0664883C17.0524 0.119488 17.8524 0.306488 18.5524 0.577488C19.2854 0.854488 19.9504 1.28749 20.5004 1.84749C21.0604 2.39649 21.4924 3.06049 21.7684 3.79449C22.0404 4.49449 22.2264 5.29449 22.2804 6.46449C22.3344 7.63949 22.3464 8.01349 22.3464 11.0005C22.3464 13.9885 22.3334 14.3625 22.2804 15.5355C22.2274 16.7055 22.0404 17.5055 21.7684 18.2055C21.4924 18.9396 21.0597 19.6047 20.5004 20.1545C19.9504 20.7145 19.2854 21.1465 18.5524 21.4225C17.8524 21.6945 17.0524 21.8805 15.8824 21.9345C14.7084 21.9885 14.3344 22.0005 11.3464 22.0005C8.35837 22.0005 7.98437 21.9875 6.81137 21.9345C5.64137 21.8815 4.84137 21.6945 4.14137 21.4225C3.4073 21.1465 2.74219 20.7137 2.19237 20.1545C1.63275 19.6052 1.19969 18.9404 0.923375 18.2065C0.652375 17.5065 0.466374 16.7065 0.412374 15.5365C0.358374 14.3615 0.346375 13.9875 0.346375 11.0005C0.346375 8.01249 0.359374 7.63849 0.412374 6.46649C0.465374 5.29449 0.652375 4.49449 0.923375 3.79449C1.2001 3.06057 1.63349 2.3958 2.19337 1.84649C2.74241 1.28699 3.40685 0.853932 4.14037 0.577488C4.84037 0.306488 5.64137 0.120488 6.81137 0.0664883ZM15.7914 2.04649C14.6314 1.99349 14.2834 1.98249 11.3464 1.98249C8.40937 1.98249 8.06137 1.99349 6.90137 2.04649C5.82837 2.09549 5.24637 2.27449 4.85837 2.42549C4.34537 2.62549 3.97837 2.86249 3.59337 3.24749C3.22842 3.60254 2.94755 4.03477 2.77137 4.51249C2.62037 4.90049 2.44137 5.48249 2.39237 6.55549C2.33937 7.71549 2.32837 8.06349 2.32837 11.0005C2.32837 13.9375 2.33937 14.2855 2.39237 15.4455C2.44137 16.5185 2.62037 17.1005 2.77137 17.4885C2.94737 17.9655 3.22837 18.3985 3.59337 18.7535C3.94837 19.1185 4.38137 19.3995 4.85837 19.5755C5.24637 19.7265 5.82837 19.9055 6.90137 19.9545C8.06137 20.0075 8.40837 20.0185 11.3464 20.0185C14.2844 20.0185 14.6314 20.0075 15.7914 19.9545C16.8644 19.9055 17.4464 19.7265 17.8344 19.5755C18.3474 19.3755 18.7144 19.1385 19.0994 18.7535C19.4644 18.3985 19.7454 17.9655 19.9214 17.4885C20.0724 17.1005 20.2514 16.5185 20.3004 15.4455C20.3534 14.2855 20.3644 13.9375 20.3644 11.0005C20.3644 8.06349 20.3534 7.71549 20.3004 6.55549C20.2514 5.48249 20.0724 4.90049 19.9214 4.51249C19.7214 3.99949 19.4844 3.63249 19.0994 3.24749C18.7443 2.88256 18.3121 2.6017 17.8344 2.42549C17.4464 2.27449 16.8644 2.09549 15.7914 2.04649ZM9.94137 14.3915C10.726 14.7181 11.5998 14.7622 12.4133 14.5162C13.2269 14.2702 13.9298 13.7494 14.402 13.0427C14.8742 12.3361 15.0864 11.4874 15.0024 10.6416C14.9184 9.79583 14.5434 9.00546 13.9414 8.40549C13.5576 8.02196 13.0936 7.7283 12.5827 7.54564C12.0718 7.36297 11.5268 7.29585 10.9869 7.3491C10.4469 7.40236 9.92553 7.57467 9.46018 7.85362C8.99483 8.13257 8.59712 8.51123 8.29568 8.96234C7.99424 9.41345 7.79656 9.92578 7.71689 10.4624C7.63722 10.9991 7.67753 11.5468 7.83491 12.066C7.9923 12.5852 8.26286 13.0631 8.6271 13.4652C8.99133 13.8673 9.4402 14.1837 9.94137 14.3915ZM7.34837 7.00249C7.8734 6.47746 8.49669 6.06099 9.18267 5.77685C9.86865 5.49271 10.6039 5.34646 11.3464 5.34646C12.0889 5.34646 12.8241 5.49271 13.5101 5.77685C14.1961 6.06099 14.8193 6.47746 15.3444 7.00249C15.8694 7.52751 16.2859 8.15081 16.57 8.83679C16.8542 9.52276 17.0004 10.258 17.0004 11.0005C17.0004 11.743 16.8542 12.4782 16.57 13.1642C16.2859 13.8502 15.8694 14.4735 15.3444 14.9985C14.284 16.0588 12.8459 16.6545 11.3464 16.6545C9.84683 16.6545 8.40871 16.0588 7.34837 14.9985C6.28804 13.9382 5.69235 12.5 5.69235 11.0005C5.69235 9.50095 6.28804 8.06282 7.34837 7.00249ZM18.2544 6.18849C18.3845 6.06576 18.4886 5.91817 18.5607 5.75446C18.6327 5.59076 18.6712 5.41426 18.6738 5.23542C18.6764 5.05658 18.6431 4.87904 18.5759 4.7133C18.5086 4.54756 18.4088 4.397 18.2823 4.27053C18.1559 4.14406 18.0053 4.04425 17.8396 3.97701C17.6738 3.90977 17.4963 3.87646 17.3174 3.87907C17.1386 3.88168 16.9621 3.92014 16.7984 3.99218C16.6347 4.06423 16.4871 4.16838 16.3644 4.29849C16.1257 4.55152 15.995 4.88761 16.0001 5.23542C16.0051 5.58323 16.1456 5.91537 16.3915 6.16133C16.6375 6.4073 16.9696 6.54772 17.3174 6.55279C17.6653 6.55786 18.0013 6.42718 18.2544 6.18849Z" fill="#333333"/>
</svg>
