<svg width="33" height="32" viewBox="0 0 33 32" fill="none" xmlns="http://www.w3.org/2000/svg">
<g id="material-symbols:location-on-outline">
<path id="Vector" d="M16.5 16.0001C17.2333 16.0001 17.8613 15.7387 18.384 15.2161C18.9058 14.6943 19.1666 14.0667 19.1666 13.3334C19.1666 12.6001 18.9058 11.9721 18.384 11.4494C17.8613 10.9276 17.2333 10.6667 16.5 10.6667C15.7666 10.6667 15.1391 10.9276 14.6173 11.4494C14.0946 11.9721 13.8333 12.6001 13.8333 13.3334C13.8333 14.0667 14.0946 14.6943 14.6173 15.2161C15.1391 15.7387 15.7666 16.0001 16.5 16.0001ZM16.5 25.8001C19.2111 23.3112 21.2222 21.0499 22.5333 19.0161C23.8444 16.9832 24.5 15.1779 24.5 13.6001C24.5 11.1779 23.7275 9.1943 22.1826 7.64942C20.6386 6.10541 18.7444 5.33341 16.5 5.33341C14.2555 5.33341 12.3609 6.10541 10.816 7.64942C9.27198 9.1943 8.49998 11.1779 8.49998 13.6001C8.49998 15.1779 9.15553 16.9832 10.4666 19.0161C11.7778 21.0499 13.7889 23.3112 16.5 25.8001ZM16.5 29.3334C12.9222 26.289 10.2502 23.461 8.48398 20.8494C6.71687 18.2387 5.83331 15.8223 5.83331 13.6001C5.83331 10.2667 6.90576 7.61119 9.05065 5.63341C11.1946 3.65564 13.6778 2.66675 16.5 2.66675C19.3222 2.66675 21.8053 3.65564 23.9493 5.63341C26.0942 7.61119 27.1666 10.2667 27.1666 13.6001C27.1666 15.8223 26.2835 18.2387 24.5173 20.8494C22.7502 23.461 20.0778 26.289 16.5 29.3334Z" fill="#4A4A4A"/>
</g>
</svg>
