<svg width="33" height="32" viewBox="0 0 33 32" fill="none" xmlns="http://www.w3.org/2000/svg">
<g id="material-symbols:nest-clock-farsight-analog-outline">
<path id="Vector" d="M19.9 22.0667L15.1666 17.3334V10.6667H17.8333V16.2334L21.7666 20.1667L19.9 22.0667ZM15.1666 8.00008V5.33341H17.8333V8.00008H15.1666ZM24.5 17.3334V14.6667H27.1666V17.3334H24.5ZM15.1666 26.6667V24.0001H17.8333V26.6667H15.1666ZM5.83329 17.3334V14.6667H8.49996V17.3334H5.83329ZM16.5 29.3334C14.6555 29.3334 12.9222 28.9832 11.3 28.2827C9.67774 27.5832 8.26663 26.6334 7.06663 25.4334C5.86663 24.2334 4.91685 22.8223 4.21729 21.2001C3.51685 19.5779 3.16663 17.8445 3.16663 16.0001C3.16663 14.1556 3.51685 12.4223 4.21729 10.8001C4.91685 9.17786 5.86663 7.76675 7.06663 6.56675C8.26663 5.36675 9.67774 4.41653 11.3 3.71608C12.9222 3.01653 14.6555 2.66675 16.5 2.66675C18.3444 2.66675 20.0777 3.01653 21.7 3.71608C23.3222 4.41653 24.7333 5.36675 25.9333 6.56675C27.1333 7.76675 28.0831 9.17786 28.7826 10.8001C29.4831 12.4223 29.8333 14.1556 29.8333 16.0001C29.8333 17.8445 29.4831 19.5779 28.7826 21.2001C28.0831 22.8223 27.1333 24.2334 25.9333 25.4334C24.7333 26.6334 23.3222 27.5832 21.7 28.2827C20.0777 28.9832 18.3444 29.3334 16.5 29.3334ZM16.5 26.6667C19.4777 26.6667 22 25.6334 24.0666 23.5667C26.1333 21.5001 27.1666 18.9779 27.1666 16.0001C27.1666 13.0223 26.1333 10.5001 24.0666 8.43341C22 6.36675 19.4777 5.33341 16.5 5.33341C13.5222 5.33341 11 6.36675 8.93329 8.43341C6.86663 10.5001 5.83329 13.0223 5.83329 16.0001C5.83329 18.9779 6.86663 21.5001 8.93329 23.5667C11 25.6334 13.5222 26.6667 16.5 26.6667Z" fill="#4A4A4A"/>
</g>
</svg>
