<svg width="24" height="24" viewBox="0 0 24 24" fill="none" xmlns="http://www.w3.org/2000/svg">
<path d="M15.5949 4.20459H8.40492C6.08492 4.20459 4.20459 6.08526 4.20459 8.40526V15.5946C4.20459 17.9146 6.08526 19.7953 8.40526 19.7953H15.5946C17.9146 19.7953 19.7953 17.9146 19.7953 15.5946V8.40526C19.7953 6.08526 17.9149 4.20459 15.5949 4.20459Z" stroke="#333333" stroke-width="0.666667" stroke-miterlimit="10"/>
<path d="M11.9999 15.7632C14.0783 15.7632 15.7632 14.0783 15.7632 11.9999C15.7632 9.92147 14.0783 8.23657 11.9999 8.23657C9.92147 8.23657 8.23657 9.92147 8.23657 11.9999C8.23657 14.0783 9.92147 15.7632 11.9999 15.7632Z" stroke="#333333" stroke-width="0.666667" stroke-miterlimit="10"/>
<path d="M16.5698 8.23669C17.0151 8.23669 17.3761 7.87568 17.3761 7.43036C17.3761 6.98503 17.0151 6.62402 16.5698 6.62402C16.1244 6.62402 15.7634 6.98503 15.7634 7.43036C15.7634 7.87568 16.1244 8.23669 16.5698 8.23669Z" fill="#333333"/>
</svg>
