<svg width="35" height="35" viewBox="0 0 35 35" fill="none" xmlns="http://www.w3.org/2000/svg">
<path fill-rule="evenodd" clip-rule="evenodd" d="M3.49992 7C3.1905 7 2.89375 7.12292 2.67496 7.34171C2.45617 7.5605 2.33325 7.85725 2.33325 8.16667C2.33325 8.47609 2.45617 8.77283 2.67496 8.99162C2.89375 9.21042 3.1905 9.33333 3.49992 9.33333H31.4999C31.8093 9.33333 32.1061 9.21042 32.3249 8.99162C32.5437 8.77283 32.6666 8.47609 32.6666 8.16667C32.6666 7.85725 32.5437 7.5605 32.3249 7.34171C32.1061 7.12292 31.8093 7 31.4999 7H3.49992ZM2.33325 17.5C2.33325 17.1906 2.45617 16.8938 2.67496 16.675C2.89375 16.4562 3.1905 16.3333 3.49992 16.3333H31.4999C31.8093 16.3333 32.1061 16.4562 32.3249 16.675C32.5437 16.8938 32.6666 17.1906 32.6666 17.5C32.6666 17.8094 32.5437 18.1062 32.3249 18.325C32.1061 18.5437 31.8093 18.6667 31.4999 18.6667H3.49992C3.1905 18.6667 2.89375 18.5437 2.67496 18.325C2.45617 18.1062 2.33325 17.8094 2.33325 17.5ZM2.33325 26.8333C2.33325 26.5239 2.45617 26.2272 2.67496 26.0084C2.89375 25.7896 3.1905 25.6667 3.49992 25.6667H31.4999C31.8093 25.6667 32.1061 25.7896 32.3249 26.0084C32.5437 26.2272 32.6666 26.5239 32.6666 26.8333C32.6666 27.1428 32.5437 27.4395 32.3249 27.6583C32.1061 27.8771 31.8093 28 31.4999 28H3.49992C3.1905 28 2.89375 27.8771 2.67496 27.6583C2.45617 27.4395 2.33325 27.1428 2.33325 26.8333Z" fill="#333333"/>
</svg>
