<svg width="23" height="18" viewBox="0 0 23 18" fill="none" xmlns="http://www.w3.org/2000/svg">
<path d="M22.3464 2.17954C21.5373 2.53804 20.6682 2.78027 19.7545 2.88975C20.6973 2.32565 21.4026 1.43781 21.7389 0.391912C20.8531 0.918018 19.8837 1.28834 18.8728 1.48678C18.193 0.760935 17.2926 0.279835 16.3114 0.11817C15.3301 -0.0434939 14.323 0.123322 13.4462 0.59272C12.5695 1.06212 11.8723 1.80784 11.4628 2.71409C11.0533 3.62035 10.9545 4.63645 11.1817 5.60463C9.38694 5.51452 7.63123 5.04804 6.02846 4.23547C4.42569 3.4229 3.01168 2.28241 1.87822 0.887992C1.49065 1.55654 1.26781 2.33166 1.26781 3.15717C1.26737 3.90032 1.45038 4.63208 1.80059 5.28754C2.15079 5.94299 2.65737 6.50188 3.27538 6.91459C2.55866 6.89179 1.85775 6.69812 1.23099 6.34972V6.40785C1.23091 7.45015 1.59145 8.46037 2.25142 9.2671C2.91139 10.0738 3.83015 10.6274 4.85179 10.8338C4.18691 11.0138 3.48984 11.0403 2.81321 10.9113C3.10146 11.8082 3.66294 12.5924 4.41905 13.1543C5.17515 13.7161 6.08804 14.0275 7.02989 14.0448C5.43104 15.2999 3.45646 15.9807 1.4238 15.9777C1.06373 15.9778 0.703975 15.9568 0.346375 15.9148C2.40964 17.2414 4.81143 17.9454 7.26437 17.9427C15.5679 17.9427 20.1072 11.0654 20.1072 5.1008C20.1072 4.90702 20.1024 4.7113 20.0937 4.51752C20.9766 3.87898 21.7388 3.08828 22.3444 2.18245L22.3464 2.17954Z" fill="#333333"/>
</svg>
